<?xml version="1.0" encoding="utf-8"?>
<svg width="312" height="312" viewBox="0 0 312 312" fill="none" xmlns="http://www.w3.org/2000/svg">
  <path d="M 59.391 154.727 C 59.391 102.486 101.741 60.137 153.981 60.137 C 175.011 60.137 194.427 66.988 210.138 78.6 C 214.258 68.902 222.561 61.409 232.784 58.388 C 211.331 40.823 183.881 30.266 153.981 30.266 C 85.244 30.266 29.521 85.989 29.521 154.727 C 29.521 223.464 85.244 279.187 153.981 279.187 C 222.719 279.187 278.442 223.464 278.442 154.727 C 278.442 140.341 275.995 126.502 271.489 113.619 C 265.357 121.908 255.709 127.439 244.748 128.006 C 247.235 136.469 248.571 145.433 248.571 154.727 C 248.571 206.967 206.222 249.317 153.981 249.317 C 101.741 249.317 59.391 206.967 59.391 154.727 Z" fill="#3880FF" style="transform-box: fill-box; transform-origin: 50% 50%;"/>
  <path d="M 153.981 209.178 C 183.983 209.178 208.433 184.775 208.433 154.727 C 208.433 124.725 184.03 100.275 153.981 100.275 C 123.933 100.275 99.53 124.725 99.53 154.727 C 99.53 184.729 123.979 209.178 153.981 209.178 Z" fill="#3880FF" style="transform-box: fill-box; transform-origin: 50% 50%;"/>
  <path d="M 235.658 108.054 C 250.695 108.054 262.884 95.865 262.884 80.828 C 262.884 65.792 250.695 53.603 235.658 53.603 C 220.622 53.603 208.433 65.792 208.433 80.828 C 208.433 95.865 220.622 108.054 235.658 108.054 Z" fill="#3880FF" style="transform-box: fill-box; transform-origin: 50% 50%;"/>
</svg>